<svg xmlns="http://www.w3.org/2000/svg" viewBox="0 0 96 96" id="breakfast"><path d="M27.72 21.22A33 33 0 1 0 47.06 15a33 33 0 0 0-19.34 6.26M47.06 79a31 31 0 1 1 31-31 31.08 31.08 0 0 1-31 31Z"></path><path d="M29.73 65.4a1 1 0 1 0-1.42 1.41c.48.47 1 .93 1.48 1.37a1 1 0 0 0 1.3-1.52c-.46-.4-.92-.83-1.36-1.26zm25.1 5.95a24.55 24.55 0 0 1-20.26-2.19 1 1 0 0 0-1 1.72 26.54 26.54 0 0 0 21.91 2.37A1 1 0 0 0 56.1 72a1 1 0 0 0-1.27-.65zm1.25-46.22c2.06.81 2.17 1.1 2.65 1.1a1 1 0 0 0 .45-1.89c-.76-.39-1.56-.75-2.37-1.07a1 1 0 0 0-.73 1.86zm-25.86 4.68a1 1 0 0 0 .66-.25A24.68 24.68 0 0 1 52.34 24a1 1 0 1 0 .43-1.95 26.66 26.66 0 0 0-23.21 6 1 1 0 0 0 .66 1.76zM60.9 48.78a3.85 3.85 0 0 0 0-5l-.44-.49a1.85 1.85 0 0 1 0-2.35l.43-.48a3.85 3.85 0 0 0 0-5l-.45-.46a1.85 1.85 0 0 1 0-2.35 2.3 2.3 0 0 0-1.55-3.84H56.1a2.07 2.07 0 0 0-1.54.71L53 31.28a3.81 3.81 0 0 0 0 5l.45.51a1.85 1.85 0 0 1 0 2.35l-.43.48a3.85 3.85 0 0 0 0 5l.44.49a1.85 1.85 0 0 1 0 2.35l-.42.48a3.84 3.84 0 0 0 0 5 1.85 1.85 0 0 1 0 2.35 2 2 0 0 0 1.38 3.39h3.06c1.45 0 2.09-1 3-2.06a3.83 3.83 0 0 0 0-5 1.85 1.85 0 0 1 0-2.35zm-1.5-1.33-.42.48a3.84 3.84 0 0 0 0 5 1.85 1.85 0 0 1 0 2.35l-1 1.12a.75.75 0 0 1-.55.27c-2.93 0-3 0-2.94-.06a3.83 3.83 0 0 0 0-5 1.85 1.85 0 0 1 0-2.35l.42-.47a3.85 3.85 0 0 0 0-5l-.44-.49a1.85 1.85 0 0 1 0-2.35l.43-.48a3.85 3.85 0 0 0 0-5l-.43-.47a1.85 1.85 0 0 1 0-2.35l1.63-1.84h2.79c.08 0 .22.33 0 .52a3.81 3.81 0 0 0 0 5l.45.51a1.85 1.85 0 0 1 0 2.35l-.43.48a3.85 3.85 0 0 0 0 5l.44.49a1.85 1.85 0 0 1 .05 2.29z"></path><path d="M65.92 36.63a2.07 2.07 0 0 0-1.54.71l-1.59 1.81a3.83 3.83 0 0 0 0 5l.45.51a1.85 1.85 0 0 1 0 2.35l-.43.48a3.84 3.84 0 0 0 0 5l.44.5a1.85 1.85 0 0 1 0 2.35l-.42.47a3.84 3.84 0 0 0 0 5 1.87 1.87 0 0 1 0 2.36 2 2 0 0 0 1.38 3.38h3.07c1.44 0 2.08-1 3-2.06a3.83 3.83 0 0 0 0-5 1.85 1.85 0 0 1 0-2.35l.42-.47a3.83 3.83 0 0 0 0-5l-.43-.49a1.83 1.83 0 0 1 0-2.35l.42-.48a3.85 3.85 0 0 0 0-5l-.45-.51a1.85 1.85 0 0 1 0-2.35 2.3 2.3 0 0 0-1.55-3.84zm2.88 2.1a.41.41 0 0 1 0 .42 3.83 3.83 0 0 0 0 5l.45.51a1.85 1.85 0 0 1 0 2.35l-.43.48a3.84 3.84 0 0 0 0 5l.44.5a1.85 1.85 0 0 1 0 2.35l-.42.47a3.84 3.84 0 0 0 0 5 1.85 1.85 0 0 1 0 2.35l-1 1.12a.75.75 0 0 1-.54.27c-3 0-3 0-3-.06a3.83 3.83 0 0 0 0-5 1.85 1.85 0 0 1 0-2.35l.42-.47a3.85 3.85 0 0 0 0-5l-.44-.49a1.85 1.85 0 0 1 0-2.35l.43-.48a3.85 3.85 0 0 0 0-5l-.45-.51a1.85 1.85 0 0 1 0-2.35l1.63-1.84c3.11-.02 2.84-.06 2.91.08zm-19.28 9.48v-8.85a9.31 9.31 0 0 0-14-8l-6 2.89a14.9 14.9 0 1 0 20 14zm-27.79 0a12.93 12.93 0 0 1 8.51-12.13c.12 0 .71-.34 6.25-3a7.31 7.31 0 0 1 11 6.29v8.85a12.9 12.9 0 1 1-25.79 0z"></path><path d="M44.48 43.38a7.18 7.18 0 1 0-7.18 7.18 7.19 7.19 0 0 0 7.18-7.18zm-12.36 0a5.18 5.18 0 1 1 5.18 5.18 5.18 5.18 0 0 1-5.18-5.18zM50 64.07a2.82 2.82 0 1 0-4.81-2 2.81 2.81 0 0 0 4.81 2zm-2.81-2a.81.81 0 1 1 1.39.58.82.82 0 0 1-1.35-.57zM50 71.05a2.81 2.81 0 1 0-2.81-2.82A2.82 2.82 0 0 0 50 71.05zm-.57-3.39a.81.81 0 0 1 1.15 0 .83.83 0 0 1 0 1.15.81.81 0 1 1-1.15-1.15zM53.1 62a2.81 2.81 0 1 0 4 0 2.82 2.82 0 0 0-4 0zm2.57 2.56a.81.81 0 1 1-.57-1.39.82.82 0 0 1 .57 1.36zM4.41 37.92a1 1 0 0 0 1 1H9a1 1 0 0 0 0-2H5.41a1 1 0 0 0-1 1z"></path><path d="M14.44 22.45a1 1 0 0 0-2 0v9.62H8.22v-9.62a1 1 0 0 0-2 0v9.62H2v-9.62a1 1 0 0 0-2 0v14.21a7.13 7.13 0 0 0 2 4.9 5.39 5.39 0 0 1 1.5 3.64v31.1a3.15 3.15 0 0 0 3.14 3.14H7.8a3.15 3.15 0 0 0 3.14-3.14V45.2a5.39 5.39 0 0 1 1.55-3.64 7.13 7.13 0 0 0 1.95-4.9zm-2 14.21A5.12 5.12 0 0 1 11 40.19a7.37 7.37 0 0 0-2.09 5V76.3a1.14 1.14 0 0 1-1.11 1.14H6.64A1.14 1.14 0 0 1 5.5 76.3V45.2a7.38 7.38 0 0 0-2.1-5A5.16 5.16 0 0 1 2 36.66v-2.59h10.44zm76.34-17.1a7.23 7.23 0 0 0-7.22 7.22v8a7.11 7.11 0 0 0 2 4.9 5.39 5.39 0 0 1 1.55 3.64v31.1a3.15 3.15 0 0 0 3.14 3.14h1.16a3.15 3.15 0 0 0 3.14-3.14V43.31a5.39 5.39 0 0 1 1.55-3.64 7.11 7.11 0 0 0 2-4.9v-8a7.23 7.23 0 0 0-7.32-7.21zM94 34.77a5.16 5.16 0 0 1-1.4 3.53 7.38 7.38 0 0 0-2.1 5v31.1a1.14 1.14 0 0 1-1.14 1.14H88.2a1.14 1.14 0 0 1-1.14-1.14V43.31a7.37 7.37 0 0 0-2.09-5 5.12 5.12 0 0 1-1.41-3.53v-8a5.22 5.22 0 0 1 10.44 0z"></path><path d="M90.59 35H87a1 1 0 0 0 0 2h3.61a1 1 0 0 0 0-2Z"></path></svg>