<svg xmlns="http://www.w3.org/2000/svg" viewBox="0 0 64 64" id="bread-butter"><circle cx="32" cy="32" r="29" fill="#f6fafd"></circle><circle cx="32" cy="32" r="25" fill="#d1ecf8"></circle><circle cx="32" cy="32" r="16" fill="#55b9ba"></circle><path fill="#ffde55" d="M35,40c-5.52,0-11-4.48-11-10a9.71,9.71,0,0,1,4.18-7.67A2.173,2.173,0,0,1,28,21.5c0-1.93,2.69-3.5,6-3.5,3.22,0,5.84,1.48,5.99,3.34A9.99,9.99,0,0,1,45,30c0,.05-.01.1-.01.15A6.086,6.086,0,0,1,46,33.5,6.761,6.761,0,0,1,39,40a7.5,7.5,0,0,1-1.85-.24A10.117,10.117,0,0,1,35,40Z"></path><path fill="#fff6d2" d="M45,30a9.99,9.99,0,0,0-5.01-8.66C39.84,19.48,37.22,18,34,18c-3.31,0-6,1.57-6,3.5a2.173,2.173,0,0,0,.18.83A9.71,9.71,0,0,0,24,30c0,5.52,5.48,10,11,10a10.117,10.117,0,0,0,2.15-.24A7.5,7.5,0,0,0,39,40a6.761,6.761,0,0,0,7-6.5,6.086,6.086,0,0,0-1.01-3.35C44.99,30.1,45,30.05,45,30Zm3-8.51V42a2.006,2.006,0,0,1-2,2H18a2.006,2.006,0,0,1-2-2V21.49a4.025,4.025,0,0,1,.12-.97l.34-1.35a3.8,3.8,0,0,0-.2-2.51A2.8,2.8,0,0,1,16,15.5C16,11.91,23.16,9,32,9s16,2.91,16,6.5a2.8,2.8,0,0,1-.26,1.16,3.8,3.8,0,0,0-.2,2.51l.34,1.35A4.025,4.025,0,0,1,48,21.49Z"></path><path fill="#d8d7da" d="M17.83,47H49v4H35v2a2.006,2.006,0,0,1-2,2H25.14a9.991,9.991,0,0,1-7.07-2.93l-1.66-1.66A2,2,0,0,1,17.83,47Z"></path><path fill="#231f20" d="M18,45H46a3,3,0,0,0,3-3V21.492a5.029,5.029,0,0,0-.149-1.213l-.339-1.352a2.842,2.842,0,0,1,.138-1.857A3.781,3.781,0,0,0,49,15.5C49,11.225,41.691,8,32,8s-17,3.225-17,7.5a3.783,3.783,0,0,0,.351,1.572,2.839,2.839,0,0,1,.137,1.854l-.34,1.354A5.064,5.064,0,0,0,15,21.492V42A3,3,0,0,0,18,45ZM17,21.492a3.007,3.007,0,0,1,.089-.726l.339-1.355a4.842,4.842,0,0,0-.256-3.165A1.8,1.8,0,0,1,17,15.5c0-2.6,6.16-5.5,15-5.5s15,2.9,15,5.5a1.8,1.8,0,0,1-.171.744,4.845,4.845,0,0,0-.257,3.168l.338,1.353a2.973,2.973,0,0,1,.09.727V42a1,1,0,0,1-1,1H18a1,1,0,0,1-1-1Z"></path><path fill="#231f20" d="M20,41h3V39H21V21.615l.308-1.231a8.93,8.93,0,0,0,.032-4.255C22.731,15.339,26.276,14,32,14c6.693,0,10.408,1.832,11.182,2.474l1.277-1.539C43.235,13.92,39.057,12,32,12s-11.237,1.92-12.46,2.936a1,1,0,0,0-.31,1.088,6.881,6.881,0,0,1,.138,3.874L19.03,21.25a.984.984,0,0,0-.03.242V40A1,1,0,0,0,20,41Z"></path><path fill="#231f20" d="M40.893,20.721C40.334,18.565,37.5,17,34,17c-3.925,0-7,1.977-7,4.5a3,3,0,0,0,.035.452A10.52,10.52,0,0,0,23,30c0,5.859,5.607,11,12,11a10.981,10.981,0,0,0,2.133-.213A8.409,8.409,0,0,0,39,41a7.771,7.771,0,0,0,8-7.5,7.112,7.112,0,0,0-1-3.62A11.036,11.036,0,0,0,40.893,20.721ZM39,39a6.506,6.506,0,0,1-1.6-.206,1,1,0,0,0-.248-.031,1.012,1.012,0,0,0-.212.023A9.119,9.119,0,0,1,35,39c-4.721,0-10-3.849-10-9a8.685,8.685,0,0,1,3.772-6.869,1,1,0,0,0,.328-1.187A1.126,1.126,0,0,1,29,21.5c0-1.183,2.054-2.5,5-2.5,2.829,0,4.9,1.274,4.989,2.417a1,1,0,0,0,.5.789A9.031,9.031,0,0,1,44,30.01c0,.017-.006.1-.007.123a1,1,0,0,0,.161.563A5.152,5.152,0,0,1,45,33.5,5.773,5.773,0,0,1,39,39Z"></path><rect width="11" height="2" x="29" y="25" fill="#231f20"></rect><rect width="15" height="2" x="27" y="30" fill="#231f20"></rect><rect width="8" height="2" x="32" y="35" fill="#231f20"></rect><path fill="#231f20" d="M32,2A30,30,0,1,0,62,32,30.034,30.034,0,0,0,32,2Zm0,58A28,28,0,1,1,60,32,28.032,28.032,0,0,1,32,60Z"></path><path fill="#231f20" d="M49,46H17.828a3,3,0,0,0-2.121,5.121l1.657,1.657A10.93,10.93,0,0,0,25.143,56H33a3,3,0,0,0,3-3V52H49a1,1,0,0,0,1-1V47A1,1,0,0,0,49,46Zm-1,4H35a1,1,0,0,0-1,1v2a1,1,0,0,1-1,1H25.143a8.947,8.947,0,0,1-6.365-2.636l-1.657-1.657A1,1,0,0,1,17.828,48H48Z"></path><path fill="#231f20" d="M25,52V51h2v1a1,1,0,0,0,1,1h4V51H29V50a1,1,0,0,0-1-1H24a1,1,0,0,0-1,1v1H22v2h2A1,1,0,0,0,25,52Z"></path></svg>