<svg id="SvgjsSvg1033" width="288" height="288" xmlns="http://www.w3.org/2000/svg" version="1.1" xmlns:xlink="http://www.w3.org/1999/xlink" xmlns:svgjs="http://svgjs.com/svgjs"><defs id="SvgjsDefs1034"></defs><g id="SvgjsG1035"><svg xmlns="http://www.w3.org/2000/svg" fill-rule="evenodd" stroke-linejoin="round" stroke-miterlimit="2" clip-rule="evenodd" viewBox="0 0 512 512" width="288" height="288"><path d="M2392.76,2721.05L2392.76,2744C2392.76,2746.76 2395,2749 2397.76,2749L2610.24,2749C2613,2749 2615.24,2746.76 2615.24,2744L2615.24,2721.05C2663.97,2717.58 2702.49,2676.89 2702.49,2627.28L2702.49,2528.44C2702.49,2525.68 2700.25,2523.44 2697.49,2523.44L2310.51,2523.44C2307.75,2523.44 2305.51,2525.68 2305.51,2528.44L2305.51,2627.28C2305.51,2676.89 2344.03,2717.58 2392.76,2721.05ZM2605.24,2721.29L2402.76,2721.29L2402.76,2739C2402.76,2739 2605.24,2739 2605.24,2739L2605.24,2721.29ZM2692.49,2618.64L2692.49,2627.28C2692.49,2673.64 2654.85,2711.29 2608.48,2711.29L2399.52,2711.29C2353.15,2711.29 2315.51,2673.64 2315.51,2627.28L2315.51,2618.64L2692.49,2618.64ZM2692.49,2546.54L2692.49,2533.44L2315.51,2533.44L2315.51,2546.54L2358.8,2546.54C2361.56,2546.54 2363.8,2548.78 2363.8,2551.54L2363.8,2571.04C2363.8,2573.8 2361.56,2576.04 2358.8,2576.04C2356.04,2576.04 2353.8,2573.8 2353.8,2571.04C2353.8,2571.04 2353.8,2556.54 2353.8,2556.54L2315.51,2556.54L2315.51,2608.64L2692.49,2608.64L2692.49,2556.54L2653.17,2556.54L2653.17,2571.04C2653.17,2573.8 2650.93,2576.04 2648.17,2576.04C2645.41,2576.04 2643.17,2573.8 2643.17,2571.04L2643.17,2551.54C2643.17,2548.78 2645.41,2546.54 2648.17,2546.54L2692.49,2546.54ZM2663.84,2571.04L2663.84,2585.54C2663.84,2585.54 2591.16,2585.54 2591.16,2585.54C2591.16,2585.54 2591.16,2571.04 2591.16,2571.04C2591.16,2568.28 2588.92,2566.04 2586.16,2566.04C2583.4,2566.04 2581.16,2568.28 2581.16,2571.04L2581.16,2590.54C2581.16,2593.31 2583.4,2595.54 2586.16,2595.54L2668.84,2595.54C2671.6,2595.54 2673.84,2593.31 2673.84,2590.54L2673.84,2571.04C2673.84,2568.28 2671.6,2566.04 2668.84,2566.04C2666.08,2566.04 2663.84,2568.28 2663.84,2571.04ZM2415.81,2571.04L2415.81,2585.54C2415.81,2585.54 2343.13,2585.54 2343.13,2585.54C2343.13,2585.54 2343.13,2571.04 2343.13,2571.04C2343.13,2568.28 2340.89,2566.04 2338.13,2566.04C2335.37,2566.04 2333.13,2568.28 2333.13,2571.04L2333.13,2590.54C2333.13,2593.31 2335.37,2595.54 2338.13,2595.54L2420.81,2595.54C2423.57,2595.54 2425.81,2593.31 2425.81,2590.54L2425.81,2571.04C2425.81,2568.28 2423.57,2566.04 2420.81,2566.04C2418.05,2566.04 2415.81,2568.28 2415.81,2571.04ZM2539.83,2571.04L2539.83,2585.54C2539.83,2585.54 2467.15,2585.54 2467.15,2585.54C2467.15,2585.54 2467.15,2571.04 2467.15,2571.04C2467.15,2568.28 2464.91,2566.04 2462.15,2566.04C2459.39,2566.04 2457.15,2568.28 2457.15,2571.04L2457.15,2590.54C2457.15,2593.31 2459.39,2595.54 2462.15,2595.54L2544.83,2595.54C2547.59,2595.54 2549.83,2593.31 2549.83,2590.54L2549.83,2571.04C2549.83,2568.28 2547.59,2566.04 2544.83,2566.04C2542.07,2566.04 2539.83,2568.28 2539.83,2571.04ZM2611.83,2571.04L2611.83,2551.54C2611.83,2548.78 2609.59,2546.54 2606.83,2546.54L2524.16,2546.54C2521.39,2546.54 2519.16,2548.78 2519.16,2551.54L2519.16,2571.04C2519.16,2573.8 2521.4,2576.04 2524.16,2576.04C2526.92,2576.04 2529.16,2573.8 2529.16,2571.04L2529.16,2556.54C2529.16,2556.54 2601.83,2556.54 2601.83,2556.54C2601.83,2556.54 2601.83,2571.04 2601.83,2571.04C2601.83,2573.8 2604.07,2576.04 2606.83,2576.04C2609.59,2576.04 2611.83,2573.8 2611.83,2571.04ZM2487.82,2571.04L2487.82,2551.54C2487.82,2548.78 2485.58,2546.54 2482.82,2546.54L2400.14,2546.54C2397.38,2546.54 2395.14,2548.78 2395.14,2551.54L2395.14,2571.04C2395.14,2573.8 2397.38,2576.04 2400.14,2576.04C2402.9,2576.04 2405.14,2573.8 2405.14,2571.04L2405.14,2556.54C2405.14,2556.54 2477.82,2556.54 2477.82,2556.54C2477.82,2556.54 2477.82,2571.04 2477.82,2571.04C2477.82,2573.8 2480.06,2576.04 2482.82,2576.04C2485.58,2576.04 2487.82,2573.8 2487.82,2571.04ZM2404.38,2462.87C2403.47,2461.41 2401.86,2460.53 2400.14,2460.53C2398.42,2460.53 2396.82,2461.41 2395.9,2462.87C2395.9,2462.87 2388.6,2474.56 2384.21,2484.39C2382.03,2489.28 2380.64,2493.82 2380.64,2496.68C2380.64,2507.45 2389.38,2516.18 2400.14,2516.18C2410.9,2516.18 2419.64,2507.45 2419.64,2496.68C2419.64,2493.82 2418.25,2489.28 2416.07,2484.39C2411.69,2474.56 2404.38,2462.87 2404.38,2462.87ZM2400.14,2475.32C2402.33,2479.16 2404.95,2484.01 2406.94,2488.46C2408.41,2491.77 2409.64,2494.75 2409.64,2496.68C2409.64,2501.93 2405.38,2506.18 2400.14,2506.18C2394.9,2506.18 2390.64,2501.93 2390.64,2496.68C2390.64,2494.75 2391.87,2491.77 2393.34,2488.46C2395.33,2484.01 2397.95,2479.16 2400.14,2475.32ZM2374.58,2387.27C2374.41,2387.35 2374.26,2387.44 2374.11,2387.54L2374.1,2387.55C2373.39,2388 2372.83,2388.62 2372.44,2389.33L2372.43,2389.34C2372.04,2390.05 2371.82,2390.85 2371.82,2391.7L2371.82,2391.71C2371.82,2391.89 2371.82,2392.08 2371.84,2392.26C2372.21,2396.45 2373.7,2401.48 2375.11,2406.5C2376.29,2410.7 2377.45,2414.89 2377.3,2418.41C2377.13,2422.35 2375.68,2426.69 2375.08,2430.92C2374.55,2434.69 2374.61,2438.39 2375.88,2441.82C2378.91,2450.07 2385.87,2453.16 2393.21,2452.66C2399.8,2452.22 2406.64,2448.62 2410.5,2443.55C2412.56,2440.83 2413.6,2437.8 2414.12,2434.62C2424.87,2436.83 2436.42,2435.48 2446.89,2429.99C2446.89,2429.99 2482.54,2411.31 2482.54,2411.31C2503.33,2400.41 2513.11,2376.71 2507.29,2354.93C2507.29,2354.93 2633.51,2288.77 2633.51,2288.77C2635.95,2287.49 2636.89,2284.47 2635.61,2282.02L2624.95,2261.68C2623.67,2259.23 2620.64,2258.29 2618.2,2259.57L2374.58,2387.27ZM2419.66,2374.93L2382.28,2394.53C2382.87,2397.43 2383.85,2400.61 2384.74,2403.8C2386.22,2409.09 2387.47,2414.39 2387.29,2418.83C2387.14,2422.46 2386.06,2426.42 2385.32,2430.35C2384.79,2433.11 2384.34,2435.86 2385.26,2438.36C2386.52,2441.77 2389.5,2442.89 2392.54,2442.69C2396.34,2442.43 2400.32,2440.42 2402.54,2437.49C2403.66,2436.02 2404.08,2434.32 2404.32,2432.58C2404.51,2431.2 2404.59,2429.79 2404.64,2428.37C2404.64,2428.15 2404.64,2427.94 2404.67,2427.72C2404.7,2426.82 2404.73,2425.92 2404.78,2425.03C2405.05,2420.53 2405.89,2416.21 2408.65,2412.47C2412.04,2407.86 2418.1,2405.49 2423.86,2403.03C2427.28,2401.57 2430.79,2400.3 2431.66,2396.61C2431.82,2395.96 2431.56,2395.28 2431.32,2394.62C2430.83,2393.29 2430.09,2392.02 2429.47,2390.93C2427.66,2387.78 2425.19,2385.09 2423.21,2382.18C2421.69,2379.92 2420.42,2377.56 2419.66,2374.93ZM2428.91,2370.08C2429.1,2373.32 2430.84,2375.75 2432.64,2378.18C2434.51,2380.7 2436.54,2383.18 2438.14,2385.95C2440.22,2389.58 2442.43,2394.57 2441.39,2398.92C2440.02,2404.72 2436.03,2408.21 2430.96,2410.77C2428.13,2412.2 2424.94,2413.32 2422.01,2414.68C2419.93,2415.65 2417.96,2416.68 2416.7,2418.39C2415.61,2419.88 2415.2,2421.6 2414.97,2423.35C2414.92,2423.75 2414.88,2424.14 2414.84,2424.54C2423.77,2426.68 2433.48,2425.73 2442.25,2421.14C2442.25,2421.14 2477.89,2402.45 2477.89,2402.45C2495.54,2393.2 2503.25,2372.38 2496.57,2354.16C2495.71,2351.81 2496.73,2349.18 2498.95,2348.01C2498.95,2348.01 2624.43,2282.24 2624.43,2282.24C2624.43,2282.24 2618.41,2270.75 2618.41,2270.75L2428.91,2370.08Z" transform="translate(-2248 -2248)" fill="#75b8ff" class="color000 svgShape"></path></svg></g></svg>