<svg id="SvgjsSvg1026" width="288" height="288" xmlns="http://www.w3.org/2000/svg" version="1.1" xmlns:xlink="http://www.w3.org/1999/xlink" xmlns:svgjs="http://svgjs.com/svgjs"><defs id="SvgjsDefs1027"></defs><g id="SvgjsG1028"><svg xmlns="http://www.w3.org/2000/svg" viewBox="0 0 96 96" width="288" height="288"><path d="M47.679,15.384A32.638,32.638,0,1,0,80.316,48.022,32.675,32.675,0,0,0,47.679,15.384Zm0,63.275A30.638,30.638,0,1,1,78.316,48.022,30.671,30.671,0,0,1,47.679,78.659Z" fill="#66ccff" class="color000 svgShape"></path><path d="M47.679,25.181A22.841,22.841,0,1,0,70.52,48.022,22.866,22.866,0,0,0,47.679,25.181Zm0,43.681A20.841,20.841,0,1,1,68.52,48.022,20.864,20.864,0,0,1,47.679,68.862Z" fill="#66ccff" class="color000 svgShape"></path><path d="M56.359 38.558c-3.307-1.418-6.222.79-8.686 3.449C45.209 39.348 42.3 37.138 39 38.558a6.8 6.8 0 00-3.883 4.266 9.714 9.714 0 001.465 8.025c2.562 4.081 7.183 7.071 10.791 7.071.089 0 .179 0 .268-.005 3.752.164 8.516-2.884 11.14-7.065a9.71 9.71 0 001.464-8.035A6.783 6.783 0 0056.359 38.558zm.726 11.229c-2.236 3.561-6.372 6.262-9.447 6.13-3 .143-7.128-2.568-9.365-6.13a7.773 7.773 0 01-1.249-6.369A4.765 4.765 0 0139.787 40.4a3.225 3.225 0 011.3-.277c1.622 0 3.417 1.268 5.837 4.043a1.033 1.033 0 001.507 0c3.077-3.529 5.143-4.62 7.145-3.766a4.757 4.757 0 012.762 3.016A7.776 7.776 0 0157.085 49.787zM95.508 11.7a1 1 0 00-.991-.014 18.945 18.945 0 00-9.771 16.578V47.8a1 1 0 001 1h2.391a1.239 1.239 0 011.236 1.238v3.709h-.021a2.585 2.585 0 00-2.573 2.521l-.463 23.276a4.842 4.842 0 109.684.1V12.563A1 1 0 0095.508 11.7zM88.137 46.8H86.746V28.266A16.946 16.946 0 0194 14.362V53.745H91.373V50.036A3.241 3.241 0 0088.137 46.8zM94 79.638a2.842 2.842 0 11-5.684-.056l.463-23.277a.575.575 0 01.573-.56H94zM10.157 11.52a1 1 0 00-1 1V22.748H6.579V12.52a1 1 0 00-2 0V22.748H2V12.52a1 1 0 00-2 0v15.6A2.979 2.979 0 002.265 31V53.745H1.7a1 1 0 00-1 1V79.6a4.881 4.881 0 109.761 0V54.745a1 1 0 00-1-1H8.892V31a2.98 2.98 0 002.265-2.888V12.52A1 1 0 0010.157 11.52zM8.458 79.6a2.881 2.881 0 11-5.761 0V55.745H8.458zm.7-51.483a.974.974 0 01-.974.973H7.892a1 1 0 00-1 1V53.741H4.265V30.089a1 1 0 00-1-1H2.974A.974.974 0 012 28.116V24.748H9.157z" fill="#66ccff" class="color000 svgShape"></path></svg></g></svg>