<svg xmlns="http://www.w3.org/2000/svg" viewBox="0 0 64 64" id="lobster"><path fill="#e6e6e6" d="M56.069,48.181Q56.783,47.124,57.4,46l.981-1.947A29.038,29.038,0,1,0,54.739,50Z"></path><path fill="#ccc" d="M23.048,53.193A23.034,23.034,0,0,1,10.067,25.055L21,11.8a22.835,22.835,0,0,1,7.987-2.6l2.076-.177Q31.529,9,32,9q.51,0,1.016.022l2,.174a22.821,22.821,0,0,1,7.949,2.58l10.97,13.281A23.03,23.03,0,0,1,41,53.172"></path><path fill="#f7b97c" d="M43.244 21.654l-4.432-5.118a.962.962 0 0 0-.79-.374 1 1 0 0 0-.772.376l-3.488 4.109-1.524-1.294 3.47-4.087A2.973 2.973 0 0 1 38 14.162a3.02 3.02 0 0 1 2.334 1.08l4.42 5.1zM20.756 21.654l-1.512-1.308 4.432-5.118A2.939 2.939 0 0 1 26 14.162a2.991 2.991 0 0 1 2.313 1.126l3.451 4.065-1.524 1.294-3.47-4.086a1.013 1.013 0 0 0-.79-.4.917.917 0 0 0-.777.359z"></path><path fill="#e8872e" d="M41,53.6v.01A2.39,2.39,0,0,1,38.61,56H25.52a2.5,2.5,0,0,1-2.48-1.94A2.392,2.392,0,0,1,24.5,51.4s2.2-.85,3.23-1.22a.491.491,0,0,0,.29-.66c-.08-.19-.16-.39-.23-.59A48.3,48.3,0,0,1,25,33a18.1,18.1,0,0,1,.46-4,18.934,18.934,0,0,1,.53-1.9c.24-.73.51-1.43.8-2.1a29.878,29.878,0,0,1,4.45-7.15,1,1,0,0,1,1.52,0A29.878,29.878,0,0,1,37.21,25c.29.67.56,1.37.8,2.1a18.934,18.934,0,0,1,.53,1.9A18.1,18.1,0,0,1,39,33a48.092,48.092,0,0,1-2.79,15.93c-.07.2-.15.39-.23.58a.491.491,0,0,0,.29.66c1.04.36,3.24,1.23,3.24,1.23A2.368,2.368,0,0,1,41,53.6Z"></path><path fill="#db6d12" d="M36,50c0,2.761-1.791,6-4,6s-4-3.239-4-6Z"></path><path fill="#f7b97c" d="M38 39H26a1 1 0 0 1 0-2H38a1 1 0 0 1 0 2zM38 43H26a1 1 0 0 1 0-2H38a1 1 0 0 1 0 2zM38 47H26a1 1 0 0 1 0-2H38a1 1 0 0 1 0 2z"></path><path fill="#e8872e" d="M54,16.1v8.71a.5.5,0,0,1-.25.43l-6.42,3.69a.452.452,0,0,1-.52-.03.218.218,0,0,1-.08-.05l-3.58-3.6a.435.435,0,0,1-.13-.25.215.215,0,0,1-.02-.11V18.48a.486.486,0,0,1,.26-.44l.08-.04,3.39-1.81a.5.5,0,0,0,.27-.45V9.52a.5.5,0,0,1,.52-.5A6.8,6.8,0,0,1,49,9.31a6.727,6.727,0,0,1,1,.4,6.916,6.916,0,0,1,1.93,1.37A7.081,7.081,0,0,1,54,16.1Z"></path><path fill="#db6d12" d="M47,9v6.74a.511.511,0,0,1-.27.45L43.34,18H43V13a4,4,0,0,1,4-4Z"></path><path fill="#e8872e" d="M21,18.48v6.41a.215.215,0,0,1-.02.11.435.435,0,0,1-.13.25l-3.58,3.6a.218.218,0,0,1-.08.05.452.452,0,0,1-.52.03l-6.42-3.69a.5.5,0,0,1-.25-.43V16.1a7.081,7.081,0,0,1,2.07-5.02A6.916,6.916,0,0,1,14,9.71a6.727,6.727,0,0,1,1-.4,6.8,6.8,0,0,1,1.48-.29.5.5,0,0,1,.52.5v6.22a.5.5,0,0,0,.27.45L20.66,18l.08.04A.486.486,0,0,1,21,18.48Z"></path><path fill="#db6d12" d="M17 9v6.74a.511.511 0 0 0 .27.45L20.66 18H21V13a4 4 0 0 0-4-4zM26.79 25a22.084 22.084 0 0 0-1.33 4H17.5a.522.522 0 0 1-.31-.1.218.218 0 0 0 .08-.05l3.58-3.6a.435.435 0 0 0 .13-.25z"></path><path fill="#f7b97c" d="M32,34a6.045,6.045,0,0,1-3.6-1.2l1.2-1.6a4,4,0,0,0,4.8,0l1.2,1.6A6.05,6.05,0,0,1,32,34Z"></path><rect width="2" height="4" x="31" y="29" fill="#f7b97c"></rect><rect width="2" height="2" x="29" y="25" fill="#f7b97c"></rect><rect width="2" height="2" x="33" y="25" fill="#f7b97c"></rect><path fill="#39b54a" d="M25.46 29A18.1 18.1 0 0 0 25 33a48.3 48.3 0 0 0 2.79 15.93A4.146 4.146 0 0 1 27 49c-2.42 0-4.97-4-5-4a6 6 0 0 1-2.527-11.441 1 1 0 0 0 .559-1.053A4.19 4.19 0 0 1 20 32a4.974 4.974 0 0 1 1-3M43 29a4.981 4.981 0 0 1 1 3 4 4 0 0 1-.033.506 1.006 1.006 0 0 0 .56 1.053A6 6 0 0 1 42 45c-.03 0-2.58 4-5 4a4.146 4.146 0 0 1-.79-.07A48.092 48.092 0 0 0 39 33a18.1 18.1 0 0 0-.46-4 18.934 18.934 0 0 0-.53-1.9"></path><rect width="2" height="2" x="20" y="40" fill="#7dea87"></rect><rect width="2" height="2" x="21" y="35" fill="#7dea87"></rect><rect width="2" height="2" x="41" y="35" fill="#7dea87"></rect><rect width="2" height="2" x="42" y="40" fill="#7dea87"></rect><rect width="2" height="2" x="13" y="18" fill="#f7b97c"></rect><rect width="2" height="2" x="49" y="22" fill="#f7b97c"></rect><path fill="#db6d12" d="M46.81,28.9a.522.522,0,0,1-.31.1H38.54a22.084,22.084,0,0,0-1.33-4h5.81a.435.435,0,0,0,.13.25l3.58,3.6A.218.218,0,0,0,46.81,28.9Z"></path></svg>