<svg xmlns="http://www.w3.org/2000/svg" width="91" height="91" id="steak"><path d="M67.76 32.397c-.714-.245-4.424-1.399-10.837-1.399-3.863 0-7.997.416-12.286 1.236-7.916 1.512-11.765 1.829-13.602 1.829-.213 0-.396-.005-.483-.008-.047-.002-1.21-.093-3.025-.093-5.761 0-16.234.888-21.638 6.838-1.993 2.191-3.097 4.838-3.32 7.88C.731 51.408.022 54.519.486 57.949c2.892 21.306 48.9 29.235 50.751 29.543.454.099 5.992 1.277 12.756 1.277 6.91-.002 15.104-1.23 20.465-6.098 4.395-3.989 6.212-9.746 5.449-17.09.267-.892.462-1.78.591-2.649 3.421-23.019-20.777-30.011-22.738-30.535zm13.806 47.077c-8.96 8.143-29.204 3.85-29.511 3.784-12.241-2.044-44.078-10.493-47.14-25.107 8.421 13.537 36.496 18.693 38.529 19.051.904.208 9.606 2.162 19.322 2.162 11.558 0 18.468-2.734 22.527-6.447-.624 2.65-1.852 4.854-3.727 6.557zm4.667-17.177c-1.257 8.467-9.155 12.759-23.471 12.759-9.527 0-18.308-2.042-18.397-2.063-.042-.01-.083-.02-.127-.025-9.971-1.727-36.118-9.015-37.349-21.844-.292-3.055.421-5.483 2.187-7.428 4.449-4.896 14.384-5.424 18.45-5.424 1.626 0 2.674.08 2.758.084.216.009.462.018.75.018 2.94 0 7.79-.642 14.411-1.907 4.022-.769 7.885-1.158 11.478-1.158 6.152 0 9.428 1.162 9.45 1.168.079.029.16.055.242.075.923.226 22.585 5.793 19.618 25.745z"></path><path d="M27.752 46.475c-1.66-.639-3.379-.978-4.971-.978-3.377 0-5.947 1.543-6.704 4.024-1.125 3.679 2.039 7.995 7.357 10.043 1.66.639 3.377.979 4.97.979 3.379 0 5.949-1.543 6.707-4.023 1.12-3.682-2.041-7.999-7.359-10.045zm3.235 8.785c-.176.571-1.238.972-2.584.972-1.067 0-2.25-.239-3.421-.691-3.354-1.29-5.1-3.722-4.782-4.762.176-.57 1.238-.974 2.582-.974 1.069 0 2.25.239 3.421.689 3.356 1.296 5.101 3.725 4.784 4.766zM41.856 46.316l-2.476-6.485a2.152 2.152 0 0 0-2.78-1.245 2.159 2.159 0 0 0-1.245 2.782l2.476 6.486a2.155 2.155 0 0 0 2.013 1.387c.254 0 .514-.047.767-.144a2.154 2.154 0 0 0 1.245-2.781zM48.28 59.651l-3.164-6.784a2.154 2.154 0 1 0-3.906 1.82l3.164 6.786a2.15 2.15 0 0 0 2.863 1.042 2.156 2.156 0 0 0 1.043-2.864zM50.951 65.642a2.155 2.155 0 1 0-4.02 1.549l1.774 4.607a2.157 2.157 0 0 0 2.785 1.236 2.155 2.155 0 0 0 1.236-2.783l-1.775-4.609zM56.125 50.121 51.18 38.166A2.153 2.153 0 0 0 48.364 37a2.157 2.157 0 0 0-1.167 2.814l4.947 11.956a2.159 2.159 0 0 0 2.815 1.166 2.15 2.15 0 0 0 1.166-2.815zM58.884 55.889a2.158 2.158 0 0 0-2.805-1.191 2.158 2.158 0 0 0-1.191 2.808l5.43 13.427a2.148 2.148 0 0 0 2.806 1.189 2.153 2.153 0 0 0 1.189-2.806l-5.429-13.427zM68.212 45.669l-3.185-7.329a2.154 2.154 0 0 0-3.953 1.717l3.184 7.329a2.154 2.154 0 0 0 3.954-1.717zM73.785 57.715l-2.622-6.034a2.152 2.152 0 0 0-2.835-1.118 2.153 2.153 0 0 0-1.116 2.835l2.62 6.033a2.157 2.157 0 0 0 2.836 1.119 2.155 2.155 0 0 0 1.117-2.835zM76.728 64.863a2.154 2.154 0 1 0-3.993 1.617l1.411 3.476a2.156 2.156 0 1 0 3.994-1.618l-1.412-3.475zM77.492 47.309a2.159 2.159 0 0 0-1.241 2.783l1.694 4.411a2.156 2.156 0 0 0 2.782 1.242 2.158 2.158 0 0 0 1.241-2.785l-1.69-4.41a2.156 2.156 0 0 0-2.786-1.241zM38.224 61.067a2.153 2.153 0 0 0-2.785-1.237 2.158 2.158 0 0 0-1.238 2.786l1.774 4.603a2.156 2.156 0 0 0 2.785 1.236 2.148 2.148 0 0 0 1.235-2.784l-1.771-4.604zM27.286 44.61a2.157 2.157 0 0 0 4.148-1.175l-.703-2.489a2.157 2.157 0 0 0-2.663-1.485 2.154 2.154 0 0 0-1.485 2.662l.703 2.487zM40.333 9.754a2.153 2.153 0 1 0-2.553-3.471c-5.845 4.299-3.241 9.003-1.518 12.115 1.873 3.379 2.521 4.84-.274 7.076a2.156 2.156 0 0 0 2.692 3.365c5.746-4.595 3.104-9.369 1.354-12.528-1.894-3.421-2.365-4.597.299-6.557zM52.195 2.048a2.154 2.154 0 0 0-3.047.035c-5.556 5.684-2.782 9.888-.948 12.668 1.729 2.618 2.443 3.703-.494 6.379a2.156 2.156 0 0 0 1.455 3.749c.52 0 1.039-.185 1.451-.564 5.656-5.159 2.968-9.236 1.185-11.936-1.734-2.633-2.693-4.085.435-7.283a2.158 2.158 0 0 0-.037-3.048z"></path></svg>